# xmcd
#
# Track frame offsets: 
#        150
#        19668
#        31887
#        45900
#        57347
#        71323
#        92462
#        109586
#        126690
#        144972
#        167482
#
# Disc length: 2697 seconds
#
# Revision: 0
# Processed by: cddbd v1.5.2PL0 Copyright (c) Steve Scherf et al.
# Submitted via: ExactAudioCopy v0.99pb5
#
DISCID=840a870b
DTITLE=Bob Wayne - Driven By Demons
DYEAR=2009
DGENRE=
TTITLE0=Driven By Demons
TTITLE1=Reptile
TTITLE2=Estacada
TTITLE3=Home
TTITLE4=One for the Lord
TTITLE5=Drug Runner
TTITLE6=Wired Up
TTITLE7=Gold
TTITLE8=Love Songs Suck
TTITLE9=Final Walk
TTITLE10=Workin' Man
EXTD=
EXTT0=
EXTT1=
EXTT2=
EXTT3=
EXTT4=
EXTT5=
EXTT6=
EXTT7=
EXTT8=
EXTT9=
EXTT10=
PLAYORDER=
